<?xml version="1.0" encoding="UTF-8"?>
<svg id="Layer_1" xmlns="http://www.w3.org/2000/svg" xmlns:xlink="http://www.w3.org/1999/xlink" viewBox="0 0 356.07 72.36">
  <defs>
    <style>
      .cls-1 {
        fill: #ee2e7b;
      }

      .cls-2 {
        fill: url(#linear-gradient-8);
      }

      .cls-3 {
        fill: url(#linear-gradient-7);
      }

      .cls-4 {
        fill: url(#linear-gradient-5);
      }

      .cls-5 {
        fill: url(#linear-gradient-6);
      }

      .cls-6 {
        fill: url(#linear-gradient-9);
      }

      .cls-7 {
        fill: url(#linear-gradient-4);
      }

      .cls-8 {
        fill: url(#linear-gradient-3);
      }

      .cls-9 {
        fill: url(#linear-gradient-2);
      }

      .cls-10 {
        fill: url(#linear-gradient);
      }

      .cls-11 {
        fill: #141415;
      }

      .cls-12 {
        fill: url(#linear-gradient-10);
      }

      .cls-13 {
        fill: url(#linear-gradient-11);
      }

      .cls-14 {
        fill: url(#linear-gradient-12);
      }

      .cls-15 {
        fill: url(#linear-gradient-13);
      }

      .cls-16 {
        fill: url(#linear-gradient-14);
      }
    </style>
    <linearGradient id="linear-gradient" x1="15.17" y1="74.4" x2="58.67" y2="46.55" gradientUnits="userSpaceOnUse">
      <stop offset="0" stop-color="#4162ae"/>
      <stop offset="1" stop-color="#26225e"/>
    </linearGradient>
    <linearGradient id="linear-gradient-2" x1="-3.77" y1="44.81" x2="39.73" y2="16.97" xlink:href="#linear-gradient"/>
    <linearGradient id="linear-gradient-3" x1="8.85" y1="64.53" x2="52.35" y2="36.69" xlink:href="#linear-gradient"/>
    <linearGradient id="linear-gradient-4" x1="9.2" y1="65.07" x2="52.7" y2="37.23" xlink:href="#linear-gradient"/>
    <linearGradient id="linear-gradient-5" x1="2.88" y1="55.21" x2="46.39" y2="27.37" xlink:href="#linear-gradient"/>
    <linearGradient id="linear-gradient-6" x1="2.54" y1="54.66" x2="46.04" y2="26.82" xlink:href="#linear-gradient"/>
    <linearGradient id="linear-gradient-7" x1="8.3" y1="63.67" x2="51.81" y2="35.83" xlink:href="#linear-gradient"/>
    <linearGradient id="linear-gradient-8" x1="-11.06" y1="33.42" x2="32.45" y2="5.58" xlink:href="#linear-gradient"/>
    <linearGradient id="linear-gradient-9" x1="-4.38" y1="43.85" x2="39.12" y2="16.01" xlink:href="#linear-gradient"/>
    <linearGradient id="linear-gradient-10" x1="1.8" y1="53.51" x2="45.3" y2="25.67" xlink:href="#linear-gradient"/>
    <linearGradient id="linear-gradient-11" x1="-12.43" y1="31.28" x2="31.08" y2="3.44" xlink:href="#linear-gradient"/>
    <linearGradient id="linear-gradient-12" x1="-5.01" y1="42.87" x2="38.49" y2="15.03" xlink:href="#linear-gradient"/>
    <linearGradient id="linear-gradient-13" x1="1.85" y1="53.59" x2="45.35" y2="25.74" xlink:href="#linear-gradient"/>
    <linearGradient id="linear-gradient-14" x1="15.51" y1="74.93" x2="59.01" y2="47.09" xlink:href="#linear-gradient"/>
  </defs>
  <g>
    <polygon class="cls-10" points="36.93 67.16 36.93 60.81 31.43 57.64 25.93 60.81 25.93 67.16 31.43 70.34 36.93 67.16"/>
    <polygon class="cls-9" points="35.71 24.75 35.71 19.81 31.43 17.34 27.16 19.81 27.16 24.75 31.43 27.21 35.71 24.75"/>
    <polygon class="cls-8" points="35.71 52.55 35.71 47.61 31.43 45.14 27.16 47.61 27.16 52.55 31.43 55.01 35.71 52.55"/>
    <polygon class="cls-7" points="47.75 45.6 47.75 40.66 43.48 38.2 39.2 40.66 39.2 45.6 43.48 48.07 47.75 45.6"/>
    <polygon class="cls-4" points="47.75 31.7 47.75 26.76 43.48 24.29 39.2 26.76 39.2 31.7 43.48 34.16 47.75 31.7"/>
    <polygon class="cls-5" points="35.45 38.49 35.45 33.85 31.43 31.53 27.42 33.85 27.42 38.49 31.43 40.81 35.45 38.49"/>
    <polygon class="cls-3" points="22.2 60.04 22.2 55.05 17.88 52.55 13.55 55.05 13.55 60.04 17.88 62.54 22.2 60.04"/>
    <polygon class="cls-2" points="22.2 17.4 22.2 12.41 17.88 9.91 13.55 12.41 13.55 17.4 17.88 19.9 22.2 17.4"/>
    <polygon class="cls-6" points="21.13 31.48 21.13 27.73 17.88 25.85 14.63 27.73 14.63 31.48 17.88 33.36 21.13 31.48"/>
    <polygon class="cls-12" points="9.08 53.26 9.08 49.08 5.46 47 1.85 49.08 1.85 53.26 5.46 55.34 9.08 53.26"/>
    <polygon class="cls-13" points="7.89 21.23 7.89 18.43 5.46 17.03 3.04 18.43 3.04 21.23 5.46 22.63 7.89 21.23"/>
    <polygon class="cls-14" points="8.21 37.76 8.21 34.59 5.46 33 2.72 34.59 2.72 37.76 5.46 39.35 8.21 37.76"/>
    <polygon class="cls-15" points="20.92 45.08 20.92 41.57 17.88 39.81 14.83 41.57 14.83 45.08 17.88 46.84 20.92 45.08"/>
    <polygon class="cls-16" points="48.98 60.21 48.98 53.86 43.48 50.69 37.98 53.86 37.98 60.21 43.48 63.38 48.98 60.21"/>
  </g>
  <g>
    <polygon class="cls-1" points="61.02 25.45 61.02 19.1 55.53 15.93 50.03 19.1 50.03 25.45 55.53 28.63 61.02 25.45"/>
    <polygon class="cls-1" points="48.98 18.5 48.98 12.15 43.48 8.98 37.98 12.15 37.98 18.5 43.48 21.67 48.98 18.5"/>
    <polygon class="cls-1" points="36.93 11.54 36.93 5.2 31.43 2.02 25.93 5.2 25.93 11.54 31.43 14.72 36.93 11.54"/>
    <polygon class="cls-1" points="61.02 39.35 61.02 33 55.53 29.82 50.03 33 50.03 39.35 55.53 42.52 61.02 39.35"/>
    <polygon class="cls-1" points="61.02 53.25 61.02 46.9 55.53 43.73 50.03 46.9 50.03 53.25 55.53 56.43 61.02 53.25"/>
  </g>
  <polygon class="cls-1" points="354.22 20.46 348.48 12.58 348.48 12.58 348.48 12.58 348.48 12.58 348.48 12.58 339.21 15.6 336.85 22.88 346.12 19.87 351.86 27.74 354.22 20.46"/>
  <g>
    <path class="cls-11" d="M94.01,14.28c4.47,0,8.2,1.49,11.2,4.47,3,2.98,4.5,6.68,4.5,11.1s-1.5,8.07-4.5,11.07c-3,3-6.73,4.5-11.2,4.5h-9.68v16.24h-7.78V14.28h17.46ZM94.01,38.1c2.3,0,4.2-.78,5.68-2.34,1.49-1.56,2.23-3.53,2.23-5.92s-.74-4.37-2.23-5.92c-1.49-1.56-3.38-2.33-5.68-2.33h-9.68v16.51h9.68Z"/>
    <path class="cls-11" d="M122.64,33.5c1.85-4.2,5.32-6.29,10.42-6.29v7.92c-2.8-.18-5.23.49-7.31,2-2.08,1.51-3.11,4-3.11,7.48v17.06h-7.31V27.82h7.31v5.68Z"/>
    <path class="cls-11" d="M142.67,47.85c.54,2.57,1.78,4.55,3.72,5.92,1.94,1.38,4.31,2.06,7.11,2.06,3.88,0,6.79-1.4,8.73-4.2l6.02,3.52c-3.34,4.92-8.28,7.38-14.82,7.38-5.5,0-9.95-1.68-13.33-5.04-3.38-3.36-5.08-7.61-5.08-12.76s1.67-9.28,5.01-12.69c3.34-3.41,7.62-5.11,12.86-5.11,4.96,0,9.03,1.74,12.22,5.21,3.18,3.48,4.77,7.69,4.77,12.66,0,.77-.09,1.78-.27,3.05h-26.94ZM142.61,41.89h19.9c-.5-2.75-1.64-4.83-3.42-6.23-1.78-1.4-3.87-2.1-6.26-2.1-2.71,0-4.96.74-6.77,2.23-1.8,1.49-2.96,3.52-3.45,6.09Z"/>
    <path class="cls-11" d="M202.91,14.28h7.31v47.37h-7.31v-4.87c-2.75,3.84-6.7,5.75-11.84,5.75-4.65,0-8.62-1.73-11.91-5.18-3.29-3.45-4.94-7.66-4.94-12.62s1.65-9.23,4.94-12.66c3.29-3.43,7.26-5.14,11.91-5.14,5.14,0,9.09,1.89,11.84,5.68V14.28ZM184.57,52.49c2.03,2.05,4.58,3.08,7.65,3.08s5.62-1.03,7.65-3.08c2.03-2.05,3.05-4.64,3.05-7.75s-1.02-5.7-3.05-7.75c-2.03-2.05-4.58-3.08-7.65-3.08s-5.62,1.03-7.65,3.08c-2.03,2.05-3.05,4.64-3.05,7.75s1.02,5.7,3.05,7.75Z"/>
    <polygon class="cls-11" points="303.82 27.82 303.82 33.64 296.51 36.02 296.51 27.82 303.82 27.82"/>
    <polygon class="cls-11" points="303.82 38.05 303.82 61.65 296.51 61.65 296.51 40.43 303.82 38.05"/>
    <polygon class="cls-11" points="335.22 27.82 326.82 53.61 318.35 33.3 311.37 35.57 321.55 61.66 332.48 61.66 344.46 24.81 335.22 27.82"/>
    <path class="cls-11" d="M250.49,62.54c-5.1,0-9.35-1.71-12.76-5.14-3.41-3.43-5.11-7.65-5.11-12.66s1.7-9.28,5.11-12.69c3.41-3.41,7.66-5.11,12.76-5.11,3.29,0,6.29.79,9,2.37,2.71,1.58,4.74,3.7,6.09,6.36l-6.29,3.65c-.77-1.62-1.93-2.9-3.49-3.82-1.56-.92-3.35-1.39-5.38-1.39-2.98,0-5.47,1.02-7.48,3.05-2.01,2.03-3.01,4.56-3.01,7.58s1,5.55,3.01,7.58c2.01,2.03,4.5,3.05,7.48,3.05,1.99,0,3.78-.47,5.38-1.42,1.6-.95,2.81-2.21,3.62-3.79l6.29,3.59c-1.44,2.71-3.52,4.85-6.23,6.43-2.71,1.58-5.71,2.37-9,2.37Z"/>
    <path class="cls-11" d="M289.87,34.86h-8.39v16.24c0,1.4.31,2.4.95,3.01.63.61,1.57.95,2.81,1.02,1.24.07,2.79.06,4.64-.03v6.56c-5.6.68-9.61.19-12.05-1.46-2.44-1.65-3.65-4.68-3.65-9.1v-16.24h-6.23v-7.04h6.23v-9.94l7.31-2.38v12.33h8.39v7.04Z"/>
    <polygon class="cls-11" points="226.05 33.64 226.05 27.82 218.74 27.82 218.74 35.75 226.05 33.64"/>
    <polygon class="cls-11" points="226.05 38.05 226.05 58.97 218.74 61.34 218.74 40.43 226.05 38.05"/>
  </g>
</svg>